<?xml version="1.0" standalone="no"?><!DOCTYPE svg PUBLIC "-//W3C//DTD SVG 1.1//EN" "http://www.w3.org/Graphics/SVG/1.1/DTD/svg11.dtd"><svg t="1615690663316" class="icon" viewBox="0 0 1024 1024" version="1.1" xmlns="http://www.w3.org/2000/svg" p-id="2262" width="64" height="64" xmlns:xlink="http://www.w3.org/1999/xlink"><defs><style type="text/css"></style></defs><path d="M513.775 513.757m-448.862 0a448.862 448.862 0 1 0 897.724 0 448.862 448.862 0 1 0-897.724 0Z" fill="#77B3D4" p-id="2263"></path><path d="M738.206 584.971c0 131.101-100.481 237.379-224.431 237.379S289.343 716.072 289.343 584.971s134.659-237.379 224.431-379.807c89.773 142.428 224.432 248.706 224.432 379.807z" fill="#231F20" p-id="2264"></path><path d="M738.206 556.917c0 131.101-100.481 237.379-224.431 237.379S289.343 688.018 289.343 556.917 424.002 319.538 513.775 177.11c89.772 142.428 224.431 248.706 224.431 379.807z" fill="#FFFFFF" p-id="2265"></path></svg>